<svg xmlns="http://www.w3.org/2000/svg" width="137" height="37" viewBox="0 0 137 37" fill="none" class="max-md:max-h-7"><g clip-path="url(#clip0_1_289)"><path d="M19.8013 32.4399C19.1979 33.3413 18.4599 34.1387 17.5891 34.8342C16.7183 35.5317 15.7368 36.066 14.6488 36.4393C13.5588 36.8125 12.3783 37.0001 11.1053 37.0001C9.4964 37.0001 8.00618 36.686 6.6326 36.0579C5.25902 35.4297 4.08655 34.5466 3.11519 33.4066C2.14383 32.2686 1.38162 30.9347 0.828572 29.4051C0.27552 27.8755 0 26.246 0 24.5125C0 22.8809 0.283565 21.3268 0.854717 19.8482C1.42386 18.3696 2.21221 17.0705 3.21575 15.9487C4.22129 14.827 5.4179 13.9276 6.80958 13.2485C8.19925 12.5694 9.71561 12.2288 11.3587 12.2288C12.4648 12.2288 13.5528 12.3654 14.6247 12.6367C15.6966 12.9099 16.6519 13.2995 17.4885 13.8093C18.3251 14.3192 19.0049 14.9474 19.5237 15.6959C20.0426 16.4443 20.302 17.3091 20.302 18.2941C20.302 19.0079 20.0426 19.6279 19.5237 20.1541C19.0049 20.6803 18.3935 20.9434 17.6896 20.9434C17.1205 20.9434 16.6097 20.7741 16.1572 20.4335C15.7047 20.095 15.411 19.6687 15.2783 19.1589C15.4452 18.6837 15.5297 18.1065 15.5297 17.4253C15.5297 16.169 15.2039 15.1248 14.5503 14.2907C13.8967 13.4586 12.867 13.0425 11.4592 13.0425C10.4195 13.0425 9.46624 13.3138 8.59543 13.8583C7.72463 14.4028 6.97047 15.133 6.33295 16.0507C5.69543 16.9685 5.19265 18.0392 4.82462 19.2608C4.45659 20.4845 4.27157 21.7918 4.27157 23.1848C4.27157 24.7144 4.47268 26.1155 4.8749 27.3902C5.27712 28.6648 5.84626 29.7519 6.58433 30.6513C7.3204 31.5527 8.21735 32.2482 9.27317 32.7417C10.329 33.2353 11.5095 33.48 12.8167 33.48C14.8942 33.48 16.5352 33.1312 17.7419 32.4358C18.9486 31.7403 19.9541 30.7124 20.7565 29.3521L21.1588 29.5561C20.8571 30.5758 20.4046 31.5364 19.8013 32.4358V32.4399Z" fill="black"></path><path d="M43.7836 33.7389C43.5142 34.3507 43.1642 34.9034 42.7278 35.395C42.2914 35.8885 41.7806 36.2617 41.1954 36.5167C40.6081 36.7716 39.9646 36.898 39.2607 36.898C38.1204 36.898 37.1068 36.5595 36.2199 35.8783C35.331 35.1992 34.8886 34.0102 34.8886 32.3113L34.788 32.2603C34.5185 32.7029 34.1605 33.1944 33.708 33.7389C33.2555 34.2834 32.7186 34.7933 32.0992 35.2685C31.4797 35.7437 30.7919 36.1271 30.0378 36.4147C29.2836 36.7043 28.4551 36.8471 27.5501 36.8471C27.0131 36.8471 26.4701 36.7696 25.917 36.6186C25.364 36.4657 24.8612 36.1944 24.4087 35.8029C23.9562 35.4133 23.5882 34.9116 23.3026 34.2998C23.017 33.6879 22.8763 32.9415 22.8763 32.0564C22.8763 31.106 23.2523 30.1882 24.0065 29.3051C24.7607 28.422 25.6898 27.6226 26.7959 26.9108C27.902 26.197 28.8814 25.5851 29.7361 25.0753C30.5908 24.5654 31.3349 24.133 31.9725 23.7761C32.608 23.4192 33.1691 23.1133 33.6558 22.8584C34.1404 22.6034 34.5527 22.375 34.8865 22.1711V16.9215C34.8865 16.8542 34.8282 16.6931 34.7116 16.4381C34.5929 16.1832 34.3938 15.9201 34.1082 15.6488C33.8227 15.3776 33.4305 15.1308 32.9277 14.9106C32.425 14.6903 31.7714 14.5802 30.9669 14.5802C30.4299 14.5802 29.903 14.674 29.3842 14.8616C28.8653 15.0492 28.4048 15.2858 28.0026 15.5754C27.6003 15.865 27.2826 16.1526 27.0473 16.4422C26.812 16.7318 26.6953 16.9765 26.6953 17.1805V19.4749C26.6953 19.9501 26.452 20.3763 25.9673 20.7495C25.4806 21.1228 24.9537 21.3104 24.3846 21.3104C23.8476 21.3104 23.3871 21.1146 23.003 20.7251C22.6168 20.3355 22.4258 19.8848 22.4258 19.3749C22.4258 18.9671 22.5263 18.5938 22.7274 18.2532C22.9286 17.9147 23.1799 17.6088 23.4816 17.3355C23.7833 17.0642 24.1091 16.8256 24.461 16.6217C24.813 16.4177 25.1227 16.2321 25.3901 16.0608C26.2609 15.5509 27.1499 15.0594 28.0528 14.5822C28.9578 14.107 29.8206 13.6991 30.6411 13.3585C31.4616 13.02 32.2158 12.7467 32.9036 12.5427C33.5894 12.3388 34.1505 12.2368 34.5869 12.2368C35.4577 12.2368 36.2782 12.4652 37.0485 12.9241C37.8187 13.383 38.3718 13.952 38.7076 14.6311C38.8404 14.8698 38.9248 15.2858 38.959 15.8793C38.9912 16.4748 39.0093 17.0602 39.0093 17.6373C39.0093 18.861 39.0013 19.9644 38.9852 20.9494C38.9671 21.9345 38.961 22.8869 38.961 23.8026C38.961 24.7184 38.953 25.6626 38.9369 26.6314C38.9188 27.6001 38.9128 28.6627 38.9128 29.817C38.9128 31.3466 39.1722 32.3582 39.6911 32.8497C40.2099 33.3433 40.8052 33.588 41.4749 33.588C42.2451 33.588 42.8143 33.4269 43.1843 33.1046C43.5524 32.7824 43.8037 32.3664 43.9385 31.8565H44.2402C44.206 32.503 44.0551 33.1311 43.7877 33.743L43.7836 33.7389ZM34.8865 22.9848C34.2832 23.4274 33.5291 23.8944 32.6241 24.3859C31.7191 24.8795 30.8402 25.4138 29.9855 25.991C29.1308 26.5681 28.3947 27.2065 27.7733 27.902C27.1539 28.5995 26.8442 29.3887 26.8442 30.2718C26.8442 31.1549 27.1458 31.9544 27.7492 32.6682C28.3525 33.382 29.1388 33.7389 30.1102 33.7389C30.981 33.7389 31.7512 33.6369 32.4229 33.433C33.0926 33.229 33.7121 32.8395 34.2832 32.2603C34.6854 31.8871 34.8865 31.4119 34.8865 30.8327V22.9848Z" fill="black"></path><path d="M42.7881 36.847V36.2862C44.3286 36.1842 45.3503 36.0231 45.8531 35.8028C46.3558 35.5826 46.6072 35.1992 46.6072 34.6567V5.35156C46.6072 5.08031 46.5831 4.87636 46.5308 4.73972C46.4805 4.60511 46.3377 4.45216 46.1044 4.28084C45.8028 4.11156 45.3503 3.84847 44.747 3.49157C44.1436 3.13466 43.6408 2.87157 43.2386 2.70229V2.39637L50.4263 0H50.7782V34.9116C50.7782 35.2522 50.8547 35.5071 51.0035 35.6764C51.1543 35.8457 51.3796 35.966 51.6812 36.0333C51.9829 36.1026 52.367 36.1434 52.8376 36.1597C53.3062 36.1781 53.8592 36.2189 54.4968 36.2862V36.847H42.7861H42.7881Z" fill="black"></path><path d="M83.6094 36.8471V36.2862C84.5144 36.2189 85.2001 36.1088 85.6707 35.9558C86.1393 35.8029 86.3746 35.4541 86.3746 34.9116V21.9161C86.3746 19.946 86.0287 18.3736 85.3389 17.2029C84.6471 16.0302 83.4284 15.4449 81.6767 15.4449C80.5646 15.4449 79.6395 15.7427 78.8994 16.3362C78.1573 16.9317 77.383 17.6863 76.5766 18.604V35.0646C76.5766 35.3032 76.659 35.5071 76.8279 35.6764C76.9949 35.8457 77.2121 35.9742 77.4816 36.0578C77.749 36.1435 78.0427 36.2108 78.3604 36.2617C78.6782 36.3127 78.9879 36.3556 79.2895 36.3882V36.8471H69.4392V36.2862C70.3442 36.2189 71.0641 36.1088 71.6011 35.9558C72.1361 35.8029 72.4055 35.4541 72.4055 34.9116V21.8652C72.4055 19.8604 72.0616 18.29 71.3759 17.1519C70.6881 16.0139 69.4734 15.4449 67.7318 15.4449C66.6257 15.4449 65.7207 15.6835 65.0188 16.1587C64.3149 16.6339 63.5286 17.3477 62.6557 18.3002V35.0156C62.7221 35.3562 62.8388 35.601 63.0077 35.7539C63.1746 35.9069 63.3838 36.017 63.6352 36.0843C63.8865 36.1537 64.1621 36.1944 64.4637 36.2108C64.7654 36.2291 65.0831 36.2699 65.419 36.3372V36.8471H55.6692V36.3372C56.4394 36.2699 57.1011 36.1169 57.6541 35.8783C58.2072 35.6417 58.4827 35.2502 58.4827 34.7056V17.2764C58.4827 17.0051 58.4586 16.8012 58.4063 16.6645C58.356 16.5299 58.2132 16.3769 57.9799 16.2056C57.6783 16.0364 57.3263 15.8406 56.9241 15.6203C56.5219 15.4 56.1197 15.2043 55.7175 15.035V14.6271L62.3018 12.2307H62.6035V17.7352L62.704 17.7862C63.0379 17.1744 63.4723 16.5381 64.0052 15.8752C64.5401 15.2124 65.1575 14.6189 65.8574 14.0907C66.5573 13.5645 67.3175 13.122 68.136 12.7651C68.9545 12.4081 69.8132 12.2307 70.7142 12.2307C72.315 12.2307 73.6102 12.7651 74.5956 13.8358C75.5811 14.9065 76.1904 16.3423 76.4237 18.1431H76.5746C76.8762 17.5313 77.2945 16.8766 77.8315 16.1812C78.3664 15.4857 78.9879 14.8392 79.6918 14.2437C80.3956 13.6502 81.1739 13.1648 82.0287 12.7916C82.8834 12.4183 83.7622 12.2307 84.6672 12.2307C86.6099 12.2307 88.076 12.9445 89.0655 14.3722C90.0529 15.7998 90.5477 17.6333 90.5477 19.8767V35.0646C90.5477 35.3032 90.6482 35.5071 90.8493 35.6764C91.0504 35.8457 91.2938 35.9742 91.5773 36.0578C91.8609 36.1435 92.1726 36.2108 92.5065 36.2617C92.8403 36.3127 93.1601 36.3556 93.4617 36.3882V36.8471H83.6114H83.6094Z" fill="black"></path><path d="M113.406 31.6239C112.937 32.558 112.3 33.4166 111.495 34.1977C110.691 34.9788 109.727 35.6253 108.605 36.1352C107.483 36.6451 106.234 36.9 104.861 36.9C103.151 36.9 101.595 36.5778 100.187 35.9313C98.7791 35.2868 97.5805 34.3772 96.593 33.2045C95.6035 32.0318 94.8413 30.6552 94.3064 29.0766C93.7694 27.496 93.502 25.8237 93.502 24.0575C93.502 22.6299 93.7533 21.2124 94.2561 19.8011C94.7589 18.3919 95.4708 17.1253 96.3919 16.0036C97.313 14.8819 98.4352 13.9744 99.7585 13.2769C101.082 12.5814 102.548 12.2327 104.157 12.2327C105.464 12.2327 106.695 12.404 107.851 12.7425C109.008 13.0831 110.013 13.6011 110.866 14.2966C111.72 14.9941 112.414 15.869 112.951 16.9214C113.486 17.9758 113.806 19.2158 113.907 20.6414H97.7755C97.7755 20.9147 97.7574 21.2267 97.7253 21.5836C97.6911 21.9405 97.675 22.3056 97.675 22.6788C97.675 24.1064 97.8761 25.4749 98.2783 26.7822C98.6805 28.0916 99.2658 29.2459 100.038 30.2473C100.808 31.2507 101.78 32.04 102.952 32.6171C104.125 33.1943 105.482 33.4839 107.023 33.4839C108.698 33.4839 110.164 33.0515 111.421 32.1848C112.678 31.318 113.506 30.2575 113.909 28.9991L114.311 29.1011C114.176 29.8496 113.874 30.6898 113.406 31.6239ZM107.652 14.4475C106.797 13.5481 105.649 13.0974 104.209 13.0974C103.27 13.0974 102.425 13.3788 101.671 13.9377C100.917 14.4985 100.263 15.1532 99.7102 15.8996C99.1572 16.6481 98.7308 17.4027 98.4291 18.1675C98.1275 18.9323 97.9425 19.5176 97.8761 19.9255H99.9375C100.541 19.9255 101.134 19.9174 101.721 19.9011C102.307 19.8847 102.918 19.8684 103.555 19.8501C104.191 19.8338 104.895 19.8256 105.667 19.8256C106.17 19.8256 106.638 19.8093 107.075 19.7746C107.509 19.742 107.895 19.6563 108.231 19.5197C108.465 19.2484 108.641 18.9935 108.758 18.7549C108.875 18.5183 108.935 18.1614 108.935 17.6842C108.935 16.4278 108.509 15.349 107.654 14.4475H107.652Z" fill="black"></path><path d="M136.547 33.7389C136.278 34.3507 135.928 34.9034 135.492 35.395C135.055 35.8885 134.544 36.2617 133.959 36.5167C133.372 36.7716 132.728 36.898 132.025 36.898C130.884 36.898 129.871 36.5595 128.984 35.8783C128.095 35.1992 127.652 34.0102 127.652 32.3113L127.552 32.2603C127.284 32.7029 126.924 33.1944 126.472 33.7389C126.019 34.2834 125.482 34.7933 124.863 35.2685C124.244 35.7437 123.556 36.1271 122.802 36.4147C122.047 36.7043 121.219 36.8471 120.314 36.8471C119.777 36.8471 119.234 36.7696 118.681 36.6186C118.128 36.4657 117.625 36.1944 117.173 35.8029C116.72 35.4133 116.352 34.9116 116.066 34.2998C115.781 33.6879 115.64 32.9415 115.64 32.0564C115.64 31.106 116.016 30.1882 116.77 29.3051C117.525 28.422 118.454 27.6226 119.56 26.9108C120.666 26.197 121.645 25.5851 122.5 25.0753C123.355 24.5654 124.099 24.133 124.736 23.7761C125.372 23.4192 125.933 23.1133 126.42 22.8584C126.904 22.6034 127.317 22.375 127.65 22.1711V16.9215C127.65 16.8542 127.592 16.6931 127.475 16.4381C127.357 16.1832 127.156 15.9201 126.872 15.6488C126.587 15.3776 126.194 15.1308 125.692 14.9106C125.189 14.6903 124.535 14.5802 123.731 14.5802C123.194 14.5802 122.667 14.674 122.148 14.8616C121.629 15.0492 121.169 15.2858 120.766 15.5754C120.364 15.865 120.046 16.1526 119.811 16.4422C119.576 16.7318 119.459 16.9765 119.459 17.1805V19.4749C119.459 19.9501 119.216 20.3763 118.731 20.7495C118.244 21.1228 117.718 21.3104 117.148 21.3104C116.611 21.3104 116.151 21.1146 115.767 20.7251C115.381 20.3355 115.19 19.8848 115.19 19.3749C115.19 18.9671 115.29 18.5938 115.491 18.2532C115.692 17.9147 115.944 17.6088 116.245 17.3355C116.547 17.0642 116.873 16.8256 117.225 16.6217C117.577 16.4177 117.887 16.2321 118.154 16.0608C119.025 15.5509 119.914 15.0594 120.817 14.5822C121.722 14.107 122.584 13.6991 123.405 13.3585C124.225 13.02 124.98 12.7467 125.667 12.5427C126.353 12.3388 126.914 12.2368 127.351 12.2368C128.222 12.2368 129.042 12.4652 129.812 12.9241C130.583 13.383 131.136 13.952 131.471 14.6311C131.604 14.8698 131.689 15.2858 131.723 15.8793C131.755 16.4748 131.773 17.0602 131.773 17.6373C131.773 18.861 131.765 19.9644 131.749 20.9494C131.731 21.9345 131.725 22.8869 131.725 23.8026C131.725 24.7184 131.717 25.6626 131.701 26.6314C131.683 27.6001 131.677 28.6627 131.677 29.817C131.677 31.3466 131.936 32.3582 132.455 32.8497C132.974 33.3433 133.569 33.588 134.239 33.588C135.009 33.588 135.578 33.4269 135.948 33.1046C136.316 32.7824 136.568 32.3664 136.702 31.8565H137.004C136.97 32.503 136.819 33.1311 136.552 33.743L136.547 33.7389ZM127.652 22.9848C127.049 23.4274 126.295 23.8944 125.39 24.3859C124.485 24.8795 123.606 25.4138 122.751 25.991C121.897 26.5681 121.159 27.2065 120.539 27.902C119.92 28.5995 119.61 29.3887 119.61 30.2718C119.61 31.1549 119.912 31.9544 120.515 32.6682C121.118 33.382 121.905 33.7389 122.878 33.7389C123.749 33.7389 124.519 33.6369 125.191 33.433C125.861 33.229 126.48 32.8395 127.051 32.2603C127.453 31.8871 127.654 31.4119 127.654 30.8327V22.9848H127.652Z" fill="black"></path></g><defs><clipPath id="clip0_1_289"><rect width="137" height="37" fill="white"></rect></clipPath></defs></svg>